<?xml version="1.0" standalone="no"?>
<!DOCTYPE svg PUBLIC "-//W3C//DTD SVG 20010904//EN"
 "http://www.w3.org/TR/2001/REC-SVG-20010904/DTD/svg10.dtd">
<svg version="1.0" xmlns="http://www.w3.org/2000/svg"
 width="35.000000pt" height="35.000000pt" viewBox="0 0 35.000000 35.000000"
 preserveAspectRatio="xMidYMid meet">
<metadata>
Created by potrace 1.16, written by Peter Selinger 2001-2019
</metadata>
<g transform="translate(0.000000,35.000000) scale(0.006836,-0.006836)"
fill="#000000" stroke="none">
<path d="M1048 5104 c-261 -47 -496 -173 -685 -367 -148 -152 -243 -308 -303
-494 -62 -194 -60 -130 -60 -1683 0 -1541 -2 -1488 56 -1672 60 -191 164 -360
312 -511 147 -148 310 -250 507 -316 189 -63 127 -61 1685 -61 1541 0 1488 -2
1672 56 186 59 351 158 499 301 202 196 327 429 374 699 23 130 23 2878 0
3008 -47 267 -171 501 -368 693 -152 148 -308 243 -494 303 -194 62 -129 60
-1692 59 -1169 -1 -1440 -3 -1503 -15z m1857 -814 c552 -118 1000 -467 1240
-965 235 -488 232 -1062 -10 -1546 -146 -292 -384 -554 -655 -719 -207 -126
-287 -148 -365 -100 -69 43 -75 69 -75 355 0 335 -20 412 -133 532 -29 30 -46
57 -41 62 5 4 52 13 106 19 584 70 897 727 582 1220 l-34 53 10 86 c12 91 8
154 -17 268 -18 84 -33 110 -68 119 -57 15 -259 -63 -355 -137 -43 -33 -48
-34 -95 -26 -65 10 -805 10 -870 0 -46 -8 -53 -6 -85 19 -59 47 -161 97 -253
125 -105 33 -136 26 -160 -33 -36 -90 -52 -234 -38 -338 l12 -81 -44 -71
c-188 -304 -140 -711 113 -968 140 -142 310 -222 506 -240 41 -4 77 -11 80
-16 3 -5 -17 -33 -44 -62 -55 -58 -95 -129 -113 -200 l-11 -46 -69 0 c-159 0
-266 48 -389 177 -55 57 -98 92 -133 109 -103 47 -183 41 -207 -17 -23 -54 20
-109 84 -109 37 0 87 -40 131 -105 116 -171 295 -276 495 -292 l80 -6 0 -149
c0 -170 -8 -200 -66 -244 -31 -24 -47 -29 -93 -28 -46 0 -72 9 -147 47 -491
249 -827 688 -946 1237 -20 92 -22 133 -22 340 0 263 10 336 81 555 202 628
740 1080 1418 1191 126 21 473 12 600 -16z"/>
</g>
</svg>
