<?xml version="1.0" standalone="no"?>
<!DOCTYPE svg PUBLIC "-//W3C//DTD SVG 20010904//EN"
 "http://www.w3.org/TR/2001/REC-SVG-20010904/DTD/svg10.dtd">
<svg version="1.0" xmlns="http://www.w3.org/2000/svg"
 width="35.000000pt" height="35.000000pt" viewBox="0 0 35.000000 35.000000"
 preserveAspectRatio="xMidYMid meet">
<metadata>
Created by potrace 1.16, written by Peter Selinger 2001-2019
</metadata>
<g transform="translate(0.000000,35.000000) scale(0.006836,-0.006836)"
fill="#000000" stroke="none">
<path d="M1280 5105 c-657 -112 -1158 -616 -1266 -1275 -21 -132 -21 -2409 1
-2545 17 -104 52 -233 88 -322 l23 -58 306 -3 306 -2 -45 67 c-57 86 -84 139
-116 234 -59 169 -58 151 -54 1400 3 1135 3 1145 24 1224 53 198 132 336 272
476 142 142 283 221 481 272 85 22 85 22 1260 22 1175 0 1175 0 1260 -22 198
-51 339 -130 481 -272 140 -140 219 -278 272 -476 21 -79 21 -89 24 -1224 4
-1249 5 -1231 -54 -1400 -32 -95 -59 -148 -116 -234 l-45 -67 306 2 306 3 23
58 c36 89 71 218 88 322 22 136 22 2413 1 2545 -109 664 -612 1167 -1276 1276
-119 19 -2435 18 -2550 -1z"/>
<path d="M3829 4190 c-116 -20 -216 -108 -250 -222 -18 -62 -12 -164 14 -221
46 -101 112 -156 218 -183 149 -38 301 35 368 176 35 75 36 191 3 265 -61 133
-205 209 -353 185z"/>
<path d="M2413 3880 c-571 -65 -1035 -488 -1154 -1053 -18 -81 -22 -136 -22
-267 0 -131 4 -186 22 -267 110 -521 513 -924 1034 -1034 145 -31 389 -31 534
0 521 110 924 513 1034 1034 31 145 31 389 0 534 -110 519 -517 928 -1029
1033 -112 22 -314 32 -419 20z m372 -550 c273 -87 460 -276 547 -550 20 -64
23 -96 23 -220 0 -124 -3 -156 -23 -220 -87 -276 -276 -465 -552 -552 -64 -20
-96 -23 -220 -23 -124 0 -156 3 -220 23 -276 87 -465 276 -552 552 -20 64 -23
96 -23 220 0 124 3 156 23 220 94 299 321 506 623 570 80 17 295 5 374 -20z"/>
</g>
</svg>
