<?xml version="1.0" standalone="no"?>
<!DOCTYPE svg PUBLIC "-//W3C//DTD SVG 20010904//EN"
 "http://www.w3.org/TR/2001/REC-SVG-20010904/DTD/svg10.dtd">
<svg version="1.0" xmlns="http://www.w3.org/2000/svg"
 width="45.000000pt" height="45.000000pt" viewBox="0 0 45.000000 45.000000"
 preserveAspectRatio="xMidYMid meet">
<metadata>
Created by potrace 1.16, written by Peter Selinger 2001-2019
</metadata>
<g transform="translate(0.000000,45.000000) scale(0.005313,-0.005313)"
fill="#000000" stroke="none">
<path d="M1 7808 c1 -575 3 -652 14 -583 31 195 99 383 195 540 228 372 609
626 1035 690 81 11 20 13 -577 14 l-668 1 1 -662z"/>
<path d="M7225 8455 c426 -64 807 -318 1035 -690 96 -157 164 -345 195 -540
11 -69 13 8 14 583 l1 662 -667 -1 c-598 -1 -659 -3 -578 -14z"/>
<path d="M4905 7413 c6 -5 26 -16 45 -23 43 -16 61 -30 55 -40 -3 -5 -14 -6
-25 -3 -11 3 -27 0 -34 -7 -9 -7 -33 -9 -63 -6 -26 3 -66 0 -88 -5 -105 -27
-166 -30 -134 -7 11 8 10 9 -3 5 -9 -3 -34 -9 -55 -13 -21 -4 -42 -10 -48 -14
-5 -5 -37 -13 -70 -18 -91 -15 -267 -61 -295 -76 -14 -8 -42 -17 -63 -21 -20
-4 -49 -16 -63 -27 -14 -11 -37 -22 -52 -23 -15 -1 -40 -8 -55 -14 -16 -6 -34
-11 -40 -11 -7 0 -23 -9 -37 -20 -14 -11 -31 -20 -39 -20 -18 0 -184 -65 -236
-92 -42 -22 -92 -67 -88 -80 2 -4 -4 -5 -12 -2 -11 5 -15 -1 -15 -24 0 -17 -7
-37 -15 -46 -8 -8 -15 -19 -15 -25 0 -6 -9 -11 -20 -11 -11 0 -20 -6 -20 -14
0 -8 -8 -21 -18 -28 -10 -7 -26 -25 -36 -40 -10 -15 -34 -35 -54 -45 -61 -31
-112 -67 -112 -80 0 -7 -7 -13 -16 -13 -8 0 -12 -4 -9 -10 3 -5 1 -10 -5 -10
-20 0 -37 -24 -44 -62 -4 -21 -13 -44 -21 -52 -17 -17 -20 -86 -4 -86 5 0 7
-5 4 -11 -4 -6 2 -13 14 -16 12 -3 21 -13 21 -22 0 -14 -2 -14 -10 -1 -5 8
-10 13 -11 10 -2 -14 -16 -136 -18 -162 -1 -4 -10 -10 -21 -13 -23 -7 -55 -62
-52 -86 2 -11 -9 -21 -29 -28 -27 -9 -30 -13 -19 -26 9 -10 9 -15 1 -15 -6 0
-11 -11 -11 -24 0 -14 -5 -28 -11 -31 -7 -5 -5 -13 6 -25 11 -12 13 -19 4 -22
-7 -2 -12 -34 -14 -83 -2 -44 -8 -105 -13 -135 -6 -30 -9 -90 -7 -133 2 -67 7
-85 34 -125 16 -26 44 -74 62 -107 17 -33 37 -63 44 -67 7 -4 18 -21 25 -38 7
-16 16 -30 20 -30 3 0 21 -23 39 -50 26 -40 30 -54 21 -65 -9 -10 -8 -20 4
-43 18 -34 12 -46 -15 -29 -58 36 -118 -141 -96 -285 17 -112 101 -263 169
-302 36 -20 38 -20 70 -4 55 29 87 38 93 28 4 -6 13 -10 21 -10 11 0 12 4 3
18 -12 19 -73 22 -92 3 -16 -16 -64 -13 -79 4 -7 9 -22 25 -32 35 -11 11 -16
23 -13 27 4 3 7 1 7 -5 0 -7 14 -12 33 -12 17 0 48 -1 67 -2 l35 -3 -3 49 c-1
28 -9 61 -18 74 -28 43 7 165 38 134 22 -22 94 -257 111 -362 1 -8 10 -26 19
-39 9 -13 14 -30 11 -38 -4 -9 2 -16 16 -20 12 -3 21 -13 20 -22 -4 -41 2 -92
10 -87 4 3 16 -3 26 -14 28 -31 40 -121 14 -104 -13 8 3 -31 48 -115 38 -73
173 -221 200 -221 7 0 13 -7 13 -15 0 -9 11 -21 25 -27 14 -6 25 -20 25 -30 0
-22 87 -108 109 -108 8 0 23 -8 33 -17 14 -13 21 -14 30 -5 15 15 71 16 98 2
11 -6 29 -15 40 -20 12 -6 25 -8 31 -5 5 4 8 1 7 -7 -2 -7 4 -11 12 -9 24 6
31 4 103 -22 77 -28 135 -24 185 13 16 12 35 22 43 23 8 2 20 6 26 10 7 4 29
10 50 13 20 2 40 8 43 13 5 9 112 61 124 61 11 0 79 53 98 77 20 24 100 73
120 73 7 0 41 28 76 61 60 58 88 101 77 119 -8 13 -75 -29 -75 -46 0 -8 -7
-14 -15 -14 -19 0 -19 14 0 30 10 8 15 28 14 54 -2 61 -8 76 -31 76 -12 0 -22
8 -25 21 -4 14 -11 18 -22 14 -9 -4 -37 -9 -63 -12 -27 -3 -53 -12 -59 -19 -6
-8 -22 -14 -35 -14 -15 0 -24 -6 -24 -15 0 -11 -7 -13 -29 -9 -26 6 -28 4 -24
-20 4 -20 1 -26 -20 -31 -29 -8 -116 28 -122 50 -3 8 -8 23 -11 33 -9 26 -8
217 0 231 18 29 -29 102 -79 121 -20 8 -30 6 -41 -5 -20 -19 -33 -19 -55 1
-12 11 -36 16 -71 16 -74 0 -74 0 -52 -17 18 -14 18 -16 -19 -47 -38 -34 -59
-89 -38 -102 6 -4 9 -12 5 -17 -3 -6 3 -18 13 -27 10 -9 17 -25 15 -34 -2 -10
1 -18 7 -18 7 0 16 -11 22 -24 7 -14 17 -22 25 -19 8 3 14 0 14 -6 0 -6 -4
-11 -10 -11 -5 0 -10 -10 -10 -23 0 -43 -20 -56 -71 -48 -25 4 -56 17 -68 28
-12 11 -35 23 -50 26 -16 3 -36 13 -44 22 -9 8 -20 15 -26 15 -6 0 -11 5 -11
10 0 6 -7 10 -15 10 -8 0 -15 6 -15 14 0 8 -16 24 -36 35 l-35 21 -35 -35
c-19 -19 -34 -45 -34 -58 0 -39 -13 -50 -43 -36 -21 10 -27 19 -27 44 0 18 -7
38 -15 45 -8 7 -15 18 -15 26 0 7 -5 25 -12 41 -6 15 -12 35 -14 43 -2 8 -6
30 -9 48 -3 18 -21 50 -39 70 -18 20 -35 45 -39 54 -3 10 -12 15 -20 12 -8 -3
-18 5 -23 17 -6 13 -21 23 -37 25 -21 2 -28 -2 -33 -22 -8 -30 -24 -32 -24 -3
0 17 -5 20 -24 17 -21 -4 -27 3 -54 66 -17 39 -38 96 -47 126 -10 30 -23 66
-31 80 -51 98 -64 141 -64 207 0 37 4 84 10 103 8 27 5 54 -15 130 -13 52 -26
119 -29 148 -2 29 -6 56 -9 58 -3 3 -25 2 -49 -3 -38 -8 -43 -12 -46 -38 -5
-46 -22 -55 -22 -13 0 73 20 97 92 112 33 8 52 46 62 129 4 31 12 59 17 62 5
4 9 19 9 34 0 16 9 40 20 54 11 14 20 32 20 40 0 8 22 37 48 65 27 29 47 54
45 56 -9 9 9 66 18 60 5 -3 9 0 9 5 0 6 7 11 15 11 8 0 15 5 15 10 0 6 10 15
23 20 12 6 30 16 39 22 14 10 22 10 38 1 14 -9 21 -10 26 -1 5 7 3 8 -6 3 -10
-6 -12 -4 -7 9 4 10 7 20 7 23 0 3 8 -1 18 -8 9 -7 14 -9 10 -5 -5 5 6 17 22
27 17 11 30 25 30 33 0 8 7 16 15 20 8 3 15 13 15 21 0 9 -5 13 -11 9 -8 -4
-8 0 0 15 13 24 41 28 41 6 0 -8 -5 -15 -10 -15 -6 0 -5 -6 2 -14 11 -12 14
-12 21 0 4 8 5 19 2 24 -9 15 48 91 63 85 7 -3 11 -1 8 4 -7 11 98 66 142 74
18 4 58 24 90 45 56 38 80 46 172 57 25 3 56 9 70 12 14 3 31 5 39 4 7 -1 10
2 6 8 -3 6 -5 11 -3 12 2 0 26 2 53 5 94 9 112 14 131 39 10 14 24 25 29 25 6
0 30 9 52 20 23 11 49 17 57 14 9 -4 22 -1 30 5 7 6 15 8 18 5 3 -2 42 -7 86
-9 62 -4 96 -12 145 -34 114 -52 143 -108 203 -391 35 -165 61 -266 74 -285 4
-5 10 -25 13 -42 5 -25 3 -33 -8 -33 -22 0 -18 -13 14 -44 23 -22 35 -27 58
-22 51 11 85 -6 101 -50 10 -26 12 -51 7 -70 l-7 -29 -10 25 c-6 14 -14 34
-18 46 -6 16 -15 20 -37 17 l-29 -5 11 -56 c9 -44 9 -77 -1 -147 -15 -109 -17
-185 -4 -205 8 -12 18 -6 55 33 35 36 41 47 27 47 -10 0 -21 3 -24 6 -14 13
45 148 78 181 26 26 35 15 28 -32 -4 -30 -3 -45 5 -45 14 0 14 -26 -1 -53
l-12 -22 -7 25 -7 25 -1 -25 c-1 -30 34 -90 52 -90 24 0 74 128 86 220 31 245
44 477 31 568 -4 26 -22 101 -39 167 -18 66 -35 134 -37 150 -7 46 -12 55 -30
55 -10 0 -14 -5 -11 -14 13 -33 19 -91 9 -81 -5 6 -12 19 -14 30 -2 10 -14 22
-27 25 -21 5 -22 7 -7 19 22 18 20 34 -3 28 -11 -3 -26 4 -36 16 -17 19 -16
20 9 15 17 -4 25 -1 23 6 -2 6 -22 12 -45 14 -41 3 -60 21 -24 23 10 0 4 6
-15 15 -18 8 -33 20 -33 27 0 15 -46 37 -79 37 -36 0 -55 15 -48 35 4 9 12 13
18 9 7 -4 9 -3 5 4 -3 6 -2 13 4 17 5 3 10 17 10 30 0 13 4 27 10 30 5 3 7 26
4 50 -4 36 -2 44 9 39 19 -7 32 27 15 38 -10 6 -8 8 5 8 12 0 20 11 24 33 l7
32 7 -35 6 -35 2 31 c3 89 -41 208 -105 279 -29 32 -35 35 -31 18 6 -27 -10
-30 -29 -5 -17 22 -17 32 1 32 10 0 7 7 -9 25 -13 14 -27 25 -32 25 -5 0 -27
14 -48 30 -22 17 -47 30 -57 30 -30 0 -32 20 -2 21 l28 1 -29 10 c-22 8 -31 8
-34 -1 -6 -17 -22 -3 -22 20 0 10 -4 19 -10 19 -5 0 -10 -4 -10 -9 0 -5 -9 -7
-20 -4 -11 3 -20 9 -20 14 0 5 -13 15 -28 23 -34 18 -111 33 -97 19z"/>
<path d="M4811 5999 c-13 -5 -42 -10 -65 -10 -58 -1 -94 -17 -143 -61 -24 -21
-47 -38 -53 -38 -5 0 -10 -14 -10 -32 0 -43 -21 -98 -38 -98 -7 0 -10 -5 -6
-11 7 -11 102 -7 167 7 23 5 27 3 27 -15 0 -18 4 -20 25 -15 29 7 35 -12 6
-21 -28 -9 -50 -38 -54 -71 -2 -16 -6 -34 -8 -39 -13 -23 -9 -103 6 -137 14
-36 28 -44 64 -38 12 1 13 -1 2 -14 -11 -13 -9 -17 15 -28 16 -7 37 -21 48
-30 37 -34 174 -46 163 -14 -3 6 -10 10 -16 8 -7 -1 -21 4 -31 11 -19 13 -19
14 5 27 27 15 41 39 22 41 -7 1 4 4 23 8 29 5 35 11 41 41 4 20 3 40 -3 47 -7
9 -6 14 5 19 22 8 97 -33 97 -54 0 -14 8 -18 40 -17 22 0 40 5 40 10 0 6 -25
28 -55 51 -40 30 -73 45 -129 58 -49 12 -76 23 -76 32 0 8 -4 14 -9 14 -6 0
-6 11 0 29 10 27 13 28 60 25 27 -2 49 1 49 6 0 14 -13 19 -58 21 -27 2 -42 8
-42 16 0 15 -10 16 -43 4 -29 -11 -42 -4 -26 16 6 7 27 13 46 13 23 0 41 8 56
23 29 30 93 47 189 50 64 2 78 5 78 18 0 32 -81 117 -136 144 -38 18 -95 20
-111 4 -9 -9 -23 -9 -57 0 -53 13 -73 13 -105 0z"/>
<path d="M3940 5875 c-41 -16 -119 -19 -140 -5 -9 5 -19 5 -26 -1 -15 -12
-149 -59 -169 -59 -8 0 -15 -7 -15 -15 0 -9 -11 -21 -25 -27 -14 -6 -25 -15
-25 -20 0 -4 -9 -17 -20 -28 -11 -11 -15 -20 -10 -20 6 0 10 -4 10 -10 0 -5
-7 -10 -15 -10 -8 0 -16 -7 -16 -15 -2 -17 -1 -16 -18 -73 -7 -24 -18 -45 -26
-48 -7 -3 -16 -11 -18 -18 -3 -8 25 -2 75 16 96 34 108 35 101 7 -5 -17 -2
-20 18 -19 48 4 52 2 45 -32 -4 -21 -3 -28 3 -19 6 10 10 10 16 1 4 -6 0 -17
-8 -23 -32 -27 -67 -86 -67 -114 0 -18 -6 -33 -15 -37 -13 -5 -13 -9 -3 -26
13 -21 48 -28 48 -9 0 7 30 9 95 7 52 -3 95 0 95 4 0 5 10 6 21 3 13 -5 19 -3
15 3 -3 5 2 12 12 14 14 4 18 -1 20 -21 1 -20 -9 -34 -42 -58 -24 -18 -54 -33
-67 -33 -19 0 -15 -4 20 -22 38 -19 47 -20 77 -9 19 7 45 14 59 17 43 8 75 23
122 59 25 19 51 35 57 36 6 0 24 16 40 35 27 32 27 36 12 53 -23 26 -20 31 19
31 43 0 46 -20 12 -89 -13 -25 -26 -69 -30 -97 -9 -76 -62 -160 -119 -190 -46
-24 -173 -62 -231 -69 -31 -4 -54 -11 -51 -16 7 -12 54 -11 90 1 16 5 45 11
64 14 19 2 47 7 63 11 30 8 31 7 17 -31 -6 -15 -13 -48 -15 -75 -4 -41 -2 -50
17 -63 11 -8 25 -13 29 -10 5 3 22 7 39 9 26 3 29 1 20 -14 -5 -10 -7 -20 -5
-23 3 -3 -4 -13 -15 -23 -11 -10 -20 -26 -20 -37 0 -10 -3 -17 -7 -17 -28 5
-53 -2 -47 -13 5 -7 0 -9 -14 -6 -14 4 -33 -6 -64 -34 -24 -22 -41 -45 -40
-51 2 -7 7 -48 12 -93 8 -79 50 -201 73 -216 12 -8 61 15 91 43 28 27 78 38
171 40 94 1 115 6 115 23 0 8 7 19 15 26 19 16 20 31 1 24 -8 -3 -17 -1 -21 5
-3 6 -3 12 2 12 4 1 17 3 28 4 11 1 35 5 53 9 21 5 32 4 32 -3 0 -14 27 -14
32 -1 2 6 48 17 102 26 96 15 227 15 318 -2 29 -5 39 -3 44 9 4 13 43 16 48 5
8 -20 25 -43 34 -46 18 -6 34 48 26 88 -4 19 -9 43 -9 52 -2 16 -34 61 -72
101 -9 9 -24 17 -33 17 -8 0 -24 6 -35 13 -11 7 -41 21 -67 31 -27 10 -48 22
-48 27 0 5 -16 25 -36 45 -22 24 -34 44 -32 58 4 28 -52 67 -106 73 -32 4 -47
0 -68 -17 -16 -12 -28 -26 -28 -31 0 -5 12 -12 28 -15 41 -10 45 -14 26 -35
-19 -21 -49 -24 -89 -9 -14 5 -37 12 -50 14 -14 3 -39 15 -57 27 -60 43 -166
35 -207 -15 -18 -21 -26 -20 -51 6 -13 15 -20 35 -20 64 0 45 4 51 75 110 25
20 45 43 45 50 0 19 -17 18 -28 -2 -5 -9 -14 -15 -20 -13 -11 4 19 113 45 163
9 16 16 41 15 56 0 15 7 36 16 47 9 10 26 36 36 58 11 22 35 56 54 77 19 20
32 42 30 50 -3 8 11 20 36 31 l41 18 -60 -6 c-33 -2 -77 -9 -97 -15 -32 -9
-38 -15 -38 -38 0 -26 -15 -52 -31 -52 -3 0 -9 13 -12 30 -4 16 -16 39 -27 50
-11 11 -20 26 -20 33 0 19 -21 37 -43 37 -10 0 -15 5 -12 10 14 23 54 9 85
-30 l31 -40 39 20 c21 11 60 21 86 24 27 2 52 5 55 5 10 1 41 83 34 89 -4 5
-168 -7 -325 -22 -19 -2 -46 -1 -60 3 -18 6 -5 9 50 15 41 3 98 12 127 18 l51
11 -34 52 c-63 95 -215 148 -314 110z m672 -1224 c15 -8 25 -18 22 -23 -3 -4
0 -23 7 -42 9 -25 17 -32 31 -28 10 2 18 -1 18 -7 0 -6 5 -10 11 -8 6 1 13 -3
16 -9 4 -11 -4 -11 -74 -5 -7 1 -13 9 -13 19 -1 13 -4 11 -15 -8 -11 -19 -14
-21 -15 -7 0 10 -8 17 -18 17 -11 0 -39 13 -63 30 -24 16 -55 30 -69 30 -41 1
-52 15 -12 16 20 0 53 7 72 16 39 18 63 26 70 24 3 -1 17 -8 32 -15z"/>
<path d="M5539 5217 c-9 -20 -6 -31 20 -68 17 -24 32 -53 34 -64 1 -11 7 -26
11 -34 7 -11 5 -13 -7 -8 -29 11 -31 -31 -3 -67 17 -23 24 -42 20 -60 -2 -14
0 -55 6 -90 9 -55 7 -70 -8 -108 -22 -50 -35 -108 -24 -108 8 0 45 95 62 159
6 24 12 107 12 185 1 123 -2 148 -21 196 -13 30 -30 63 -38 73 -22 24 -51 21
-64 -6z"/>
<path d="M5485 4911 c-3 -5 -1 -20 4 -33 5 -13 7 -63 4 -111 -5 -78 -4 -87 11
-87 10 0 24 6 31 13 8 6 21 18 30 25 22 18 19 61 -9 123 -23 52 -59 88 -71 70z"/>
<path d="M5345 2929 c4 -13 23 -55 42 -94 61 -122 53 -217 -32 -399 -37 -81
-71 -165 -98 -246 -52 -153 -177 -316 -312 -405 -33 -22 -62 -42 -65 -46 -9
-9 -103 -64 -145 -83 -22 -10 -48 -23 -58 -28 -10 -5 -74 -20 -142 -34 -109
-21 -134 -23 -209 -15 -127 15 -219 43 -359 112 -22 11 -45 19 -53 19 -8 0
-14 5 -14 10 0 6 -7 10 -15 10 -17 0 -21 35 -5 45 6 4 5 12 -4 21 -22 21 -29
17 -24 -16 3 -17 1 -30 -4 -30 -4 0 -8 5 -8 10 0 6 -11 23 -25 38 -14 15 -25
39 -25 54 0 21 -4 26 -16 21 -10 -4 -14 -1 -12 8 1 8 -7 25 -19 37 -60 66 -74
82 -117 142 -25 36 -50 70 -54 75 -18 23 -32 79 -22 89 7 7 10 6 10 -2 0 -8
25 -11 85 -10 62 1 85 5 85 15 0 7 8 13 18 13 19 0 42 18 42 32 0 4 -12 8 -27
8 -25 1 -26 2 -10 14 9 7 17 23 17 35 0 11 5 21 10 21 6 0 10 -9 10 -19 0 -14
6 -19 20 -18 26 2 25 22 -2 41 -21 15 -21 16 -3 16 11 0 56 -11 100 -25 67
-20 85 -23 112 -13 26 9 34 9 48 -5 18 -19 45 -23 45 -7 0 6 -9 10 -19 10 -10
0 -22 7 -25 16 -4 9 -13 14 -21 10 -9 -3 -25 4 -37 16 -17 17 -20 18 -15 4 6
-14 2 -17 -20 -14 -17 2 -29 10 -31 21 -3 13 2 17 15 15 11 -2 18 3 18 12 0 9
-7 14 -17 12 -19 -3 -43 32 -33 48 4 6 1 9 -7 8 -7 -2 -14 7 -16 20 -4 24 -32
31 -32 7 0 -8 -4 -15 -10 -15 -5 0 -10 -7 -10 -15 0 -13 -12 -19 -25 -12 -2 1
-11 -7 -19 -18 -19 -26 -28 -16 -20 22 5 26 9 29 35 25 30 -4 38 8 16 26 -8 7
-18 7 -27 2 -22 -14 -28 -12 -26 8 0 10 -6 16 -16 16 -10 -1 -18 2 -18 6 0 4
-11 11 -25 14 -16 4 -22 11 -19 21 4 8 1 22 -6 30 -10 12 -9 15 9 15 11 0 21
5 21 11 0 5 -4 7 -10 4 -5 -3 -10 2 -10 12 0 11 -5 24 -12 31 -9 9 -9 12 2 12
10 0 8 4 -5 13 -10 8 -15 19 -12 24 4 6 -1 14 -10 18 -16 5 -15 8 7 25 26 20
9 29 -20 10 -9 -6 -20 -5 -29 3 -12 9 -13 9 -7 -1 5 -8 -1 -15 -15 -20 -20 -8
-20 -9 -4 -16 17 -6 17 -7 -1 -27 -10 -11 -23 -18 -30 -15 -8 3 -9 -5 -3 -32
12 -53 12 -54 -18 -50 -24 3 -28 7 -25 32 2 16 -2 32 -10 37 -9 6 -10 11 -2
17 25 17 43 112 21 108 -29 -7 -46 -19 -40 -30 4 -7 2 -7 -8 1 -12 10 -18 10
-27 1 -9 -9 -12 -5 -12 20 0 19 -5 32 -13 32 -20 0 -96 -129 -103 -176 -5 -34
-11 -44 -25 -44 -11 0 -18 6 -17 13 2 6 -6 12 -17 12 -11 0 -31 6 -45 14 -13
8 -31 15 -40 16 -38 6 -58 19 -63 41 -2 14 -1 27 3 29 14 9 39 -6 34 -19 -6
-15 35 -45 54 -39 6 3 10 8 7 13 -3 4 26 29 65 55 119 81 116 90 -34 89 l-99
-1 -49 -53 -48 -53 30 -15 c30 -15 39 -35 20 -47 -6 -4 -8 -11 -5 -16 3 -5 -1
-6 -10 -3 -20 8 -65 -15 -65 -33 0 -7 -7 -14 -15 -14 -8 -1 -19 -3 -25 -4 -5
-1 -24 -3 -41 -4 -22 -1 -32 -7 -36 -22 -3 -11 -11 -18 -18 -15 -6 2 -41 -4
-76 -13 -35 -10 -79 -17 -97 -15 -31 2 -33 -1 -29 -22 4 -22 1 -24 -39 -25
-24 -1 -47 -3 -51 -4 -5 -2 -18 -6 -30 -10 -13 -4 -23 -11 -23 -16 0 -5 -19
-9 -42 -10 -56 -1 -94 -13 -90 -28 1 -7 -6 -9 -23 -5 -14 3 -33 3 -42 -1 -10
-4 -61 -8 -113 -10 -101 -2 -153 -12 -144 -26 3 -5 -5 -9 -17 -9 -32 0 -99
-66 -131 -129 -15 -31 -28 -52 -28 -47 0 5 -14 -10 -30 -32 -17 -23 -34 -42
-38 -42 -4 0 -46 -36 -92 -80 -47 -44 -97 -86 -113 -93 -15 -6 -30 -20 -33
-29 -3 -10 -16 -26 -28 -36 -13 -10 -34 -42 -46 -70 -12 -29 -29 -52 -36 -52
-8 0 -14 -7 -14 -15 0 -8 -4 -15 -9 -15 -5 0 -12 -16 -15 -35 -4 -20 -16 -41
-26 -48 -11 -6 -20 -20 -20 -29 0 -10 -4 -18 -9 -18 -5 0 -12 -12 -16 -27 -3
-16 -20 -49 -36 -76 -16 -26 -29 -51 -29 -56 0 -4 -18 -35 -40 -67 -22 -33
-47 -81 -56 -108 -9 -27 -25 -63 -34 -80 -10 -17 -25 -63 -35 -103 -9 -40 -25
-82 -35 -94 -11 -11 -27 -44 -36 -72 -9 -29 -22 -61 -29 -73 -7 -11 -24 -56
-38 -100 -14 -43 -38 -103 -53 -133 -22 -46 -28 -71 -31 -150 -4 -97 -19 -171
-35 -171 -9 0 -27 -18 -83 -83 -22 -26 -43 -47 -47 -47 -13 0 -141 81 -203
129 -305 234 -503 571 -560 951 -11 74 -13 -3 -14 -582 l-1 -668 1685 0 c1304
0 1685 3 1685 12 0 9 3 9 12 0 9 -9 589 -12 2550 -12 l2538 0 -1 663 c-1 574
-3 651 -14 582 -62 -391 -263 -724 -576 -958 -73 -54 -118 -82 -123 -75 -1 2
-15 59 -30 128 -16 69 -36 152 -46 185 -10 33 -27 92 -39 130 -11 39 -26 106
-32 150 -7 44 -21 99 -31 122 -11 24 -18 49 -15 55 2 7 -6 45 -19 83 -14 39
-31 90 -38 115 -29 90 -76 225 -91 256 -8 18 -15 37 -15 42 0 6 -11 32 -24 59
-14 26 -32 65 -41 85 -10 21 -21 36 -25 33 -4 -2 -5 7 -2 20 2 14 0 25 -6 25
-5 0 -13 16 -16 35 -4 19 -11 35 -16 35 -6 0 -10 8 -10 18 0 15 -2 15 -11 2
-9 -12 -10 -12 -5 4 9 27 -24 96 -46 96 -10 0 -18 4 -18 9 0 9 -27 43 -105
133 -13 14 -21 29 -18 31 7 7 -67 72 -81 72 -6 0 -19 8 -28 17 -10 10 -29 20
-43 24 -24 6 -24 7 -8 20 17 12 16 13 -9 14 -15 0 -30 5 -33 10 -3 6 -17 10
-30 10 -13 0 -27 5 -30 10 -3 6 -18 10 -32 10 -15 0 -23 3 -20 7 7 6 -125 73
-144 73 -6 0 -19 9 -31 20 -12 11 -32 20 -44 20 -13 0 -26 5 -29 10 -3 6 -22
10 -41 10 -19 0 -34 5 -34 10 0 6 -6 10 -13 10 -8 0 -22 9 -32 20 -10 11 -31
20 -47 20 -15 0 -28 5 -28 10 0 6 -11 10 -25 10 -13 0 -46 14 -72 30 -35 22
-55 29 -75 25 -15 -4 -37 -1 -49 5 -17 9 -23 9 -29 0 -8 -13 -13 -8 -40 45
-12 23 -23 31 -50 33 -19 2 -39 8 -44 13 -14 13 -76 11 -76 -3 0 -6 -13 1 -30
17 -16 16 -30 35 -30 42 0 7 -5 13 -10 13 -6 0 -29 12 -51 27 -22 15 -57 28
-76 30 -31 2 -34 0 -30 -17 3 -11 1 -18 -4 -14 -5 3 -9 15 -9 28 0 12 -5 27
-12 34 -9 9 -9 12 2 12 8 0 4 7 -10 17 -14 10 -33 27 -43 39 -9 13 -33 33 -53
45 -30 18 -38 19 -45 8 -6 -9 -11 -10 -16 -3 -5 5 -25 21 -47 34 l-38 23 7
-24z m-2191 -1348 c3 -4 -24 -16 -60 -26 -68 -18 -89 -39 -61 -60 12 -9 15
-21 10 -48 -3 -23 -2 -37 5 -37 5 0 8 -9 5 -19 -3 -10 0 -28 6 -40 6 -11 16
-44 21 -73 6 -28 14 -54 18 -57 20 -16 30 -49 19 -61 -9 -10 -9 -11 3 -5 12 7
13 6 4 -6 -8 -10 -9 -31 -1 -76 9 -55 6 -86 -8 -72 -2 3 -11 59 -20 124 -8 66
-20 122 -25 123 -6 2 -10 12 -10 23 0 11 -9 45 -20 75 -10 31 -22 84 -26 118
-4 33 -11 67 -16 73 -7 9 -6 14 3 17 8 2 34 9 59 16 25 7 50 14 55 15 20 6 34
5 39 -4z m110 -46 c19 -34 68 -201 80 -270 3 -19 26 -110 45 -185 6 -19 15
-57 21 -85 15 -66 42 -126 55 -121 6 2 9 14 7 27 -3 28 -46 181 -73 257 -30
83 -22 95 12 18 16 -38 27 -76 25 -83 -3 -7 -1 -13 4 -13 5 0 12 -17 16 -37 3
-21 12 -51 19 -68 7 -16 23 -64 35 -105 13 -41 29 -84 37 -95 7 -11 13 -35 13
-53 0 -24 9 -45 29 -68 20 -22 32 -49 37 -81 3 -26 20 -88 36 -137 16 -49 32
-122 35 -162 7 -87 13 -83 -172 -149 -148 -54 -196 -64 -212 -44 -15 20 -70
173 -99 277 -38 139 -32 188 29 216 34 16 228 84 262 93 44 11 47 13 37 26 -5
6 -9 19 -9 27 0 21 -35 100 -44 100 -4 0 -11 9 -14 21 -6 17 -12 19 -38 13
-18 -4 -48 -9 -67 -10 -77 -6 -99 -16 -119 -50 -12 -20 -28 -34 -40 -34 -18 0
-19 3 -6 55 11 51 11 59 -6 57 -4 -1 -4 19 -1 45 5 43 4 45 -17 38 -20 -6 -22
-5 -12 13 7 13 7 22 0 29 -7 7 -7 17 2 32 11 16 11 23 1 33 -9 9 -12 9 -13 -3
-1 -7 -5 4 -9 26 -4 22 -4 48 1 58 7 11 6 17 -2 17 -6 0 -9 9 -6 20 3 11 -4
54 -14 95 -11 42 -18 84 -17 93 2 11 -5 18 -19 20 -28 4 -29 11 -6 28 10 7 15
16 11 20 -4 4 -14 1 -23 -6 -13 -10 -15 -9 -15 9 0 11 5 21 10 21 7 0 7 6 0
20 -8 16 -8 20 4 20 8 0 16 4 18 10 2 5 17 12 34 16 31 6 32 5 36 -37 5 -54
36 -175 52 -209 9 -17 11 -57 8 -118 -3 -64 -1 -92 7 -92 18 0 29 -41 21 -77
-9 -38 -7 -40 21 -14 14 13 21 34 23 65 1 25 0 46 -4 46 -4 0 -12 21 -19 48
-15 60 -16 63 -7 90 4 12 4 21 -1 20 -13 -5 -15 5 -8 44 4 20 4 42 -1 49 -4 7
-9 28 -11 48 -8 65 -9 71 -16 77 -4 4 -7 21 -7 38 0 24 -3 27 -10 16 -9 -13
-10 -13 -10 0 0 33 13 61 27 58 8 -2 25 -21 37 -43z m368 -53 c9 -21 24 -63
33 -93 18 -58 38 -113 62 -168 15 -37 15 -34 -9 -366 -9 -123 -14 -160 -20
-135 -4 19 -5 51 -3 70 3 19 7 102 9 185 4 119 2 153 -9 165 -9 10 -15 42 -16
80 -2 59 -12 96 -31 110 -6 5 -14 32 -22 80 -2 8 -8 28 -15 43 -13 32 -15 67
-3 67 4 0 15 -17 24 -38z m-473 -612 c4 0 8 -6 8 -12 3 -46 18 -116 28 -130
11 -17 13 -17 31 0 18 18 19 18 31 -6 7 -13 13 -30 13 -37 0 -7 7 -18 15 -25
17 -14 20 -30 5 -30 -5 0 -26 -12 -47 -26 l-38 -25 -26 104 c-14 57 -28 133
-31 168 -2 35 -3 54 -1 42 3 -13 8 -23 12 -23z m291 -102 c0 -14 5 -18 19 -13
14 4 20 0 25 -17 10 -41 7 -47 -31 -53 -37 -7 -89 -25 -125 -46 -16 -8 -18 -4
-18 26 0 19 -5 44 -12 54 -6 10 -8 26 -4 36 6 17 7 17 26 0 10 -9 19 -20 18
-24 -2 -13 19 -54 24 -45 14 25 16 44 6 41 -16 -3 -23 32 -9 46 9 9 13 6 17
-11 4 -12 10 -22 15 -22 5 0 6 -7 3 -15 -4 -9 0 -15 10 -15 19 0 21 23 4 49
-6 10 -8 26 -4 36 5 14 9 15 21 5 8 -7 15 -21 15 -32z m444 -187 c32 -33 45
-99 27 -137 -6 -13 -15 -34 -20 -46 -9 -24 -28 -66 -82 -182 l-32 -70 -28 32
c-20 23 -29 43 -30 70 -1 54 -5 72 -24 122 -24 64 -46 160 -39 171 3 6 27 23
52 39 66 42 137 42 176 1z"/>
<path d="M3465 599 c-44 -16 -113 -41 -153 -55 -85 -31 -90 -41 -72 -139 9
-49 16 -65 29 -65 18 0 136 35 166 50 27 13 104 40 133 47 18 4 22 1 22 -20 0
-27 -16 -37 -59 -37 -16 0 -39 -8 -52 -18 -13 -11 -46 -22 -73 -26 -27 -3 -57
-13 -66 -21 -21 -19 -56 -19 -64 0 -3 8 -11 15 -18 15 -9 0 -9 -3 0 -12 7 -7
12 -24 12 -39 0 -53 18 -55 157 -10 71 22 147 45 171 51 47 12 54 32 27 74 -9
13 -20 46 -25 72 -16 89 -36 158 -46 160 -5 1 -45 -11 -89 -27z m65 -47 c0
-28 -29 -49 -95 -71 -33 -10 -84 -28 -114 -40 -58 -22 -71 -20 -71 8 0 20 23
44 33 35 3 -3 19 3 35 15 17 12 35 21 40 21 6 0 23 5 39 12 32 13 102 35 121
37 6 0 12 -7 12 -17z"/>
<path d="M4373 2553 c-34 -19 -43 -31 -43 -52 0 -18 3 -22 9 -12 13 20 31 4
31 -28 0 -29 42 -81 66 -81 7 0 14 -4 16 -10 2 -5 33 -12 71 -15 54 -4 67 -3
67 9 0 12 -7 13 -31 6 -31 -9 -31 -9 -13 12 19 21 19 21 -8 14 -27 -6 -41 8
-15 17 9 3 9 7 -1 19 -10 13 -9 18 3 28 11 9 15 9 15 1 0 -7 4 -10 10 -6 18
11 -2 35 -30 35 -27 0 -46 22 -35 40 3 5 1 11 -4 15 -6 3 -8 12 -4 20 3 8 0
15 -6 15 -6 0 -11 -4 -11 -9 0 -5 -8 -12 -17 -14 -13 -3 -14 -5 -3 -6 8 -1 20
-12 27 -26 9 -22 8 -27 -7 -35 -27 -15 -60 -12 -60 4 0 21 21 31 31 15 7 -12
9 -11 9 2 0 8 -4 19 -9 25 -5 5 -11 17 -13 26 -3 14 -8 13 -45 -9z"/>
<path d="M4607 2414 c-3 -18 3 -38 19 -62 13 -19 22 -37 19 -40 -2 -3 3 -11
12 -17 16 -12 16 -14 0 -38 -13 -20 -14 -28 -3 -42 7 -10 18 -15 24 -11 9 5
12 -9 14 -46 0 -29 3 -66 4 -83 2 -16 3 -39 2 -50 0 -11 -1 -39 -1 -62 0 -24
-3 -43 -8 -43 -5 0 -9 -4 -9 -10 0 -5 9 -10 21 -10 12 0 19 5 16 13 -2 6 2 20
10 29 19 22 44 161 31 169 -7 4 -6 9 0 13 6 4 8 22 5 41 -3 19 -1 41 5 48 8
10 6 21 -8 42 -11 17 -20 42 -20 58 0 15 -5 27 -11 27 -6 0 -8 7 -5 16 9 25
-11 52 -39 52 -14 0 -34 7 -44 16 -24 22 -28 20 -34 -10z"/>
</g>
</svg>
