<?xml version="1.0" standalone="no"?>
<!DOCTYPE svg PUBLIC "-//W3C//DTD SVG 20010904//EN"
 "http://www.w3.org/TR/2001/REC-SVG-20010904/DTD/svg10.dtd">
<svg version="1.0" xmlns="http://www.w3.org/2000/svg"
 width="35.000000pt" height="35.000000pt" viewBox="0 0 35.000000 35.000000"
 preserveAspectRatio="xMidYMid meet">
<metadata>
Created by potrace 1.16, written by Peter Selinger 2001-2019
</metadata>
<g transform="translate(0.000000,35.000000) scale(0.006836,-0.006836)"
fill="#000000" stroke="none">
<path d="M3628 4147 l-3 -332 30 -55 c53 -96 163 -350 152 -350 -1 0 -42 11
-90 24 l-88 24 3 -125 3 -126 95 -34 c52 -19 109 -39 126 -45 28 -9 32 -16 42
-72 17 -87 46 -355 40 -361 -3 -3 -73 -8 -157 -12 l-151 -6 0 -119 0 -118 78
0 c44 0 114 -3 156 -7 l77 -6 -6 -71 c-4 -39 -10 -101 -14 -139 l-7 -67 410 2
411 3 14 85 c8 52 14 173 15 310 1 249 -11 354 -64 562 -114 451 -388 878
-745 1159 -55 43 -105 83 -112 89 -7 6 -24 15 -38 22 -14 6 -25 15 -25 20 0 4
-7 8 -15 8 -8 0 -15 5 -15 12 0 6 -3 9 -6 5 -3 -3 -23 4 -43 17 -77 48 -70 75
-73 -297z m191 -140 c38 -45 97 -123 130 -172 60 -88 61 -89 61 -159 l0 -71
-69 140 c-38 77 -95 181 -128 230 -74 112 -75 115 -69 115 3 0 36 -37 75 -83z"/>
<path d="M4049 1908 c-166 -330 -399 -823 -399 -842 0 -49 70 -75 102 -38 26
29 448 903 448 928 0 32 -26 54 -66 54 -33 0 -35 -3 -85 -102z"/>
<path d="M4395 1987 c-8 -13 -112 -223 -231 -467 -163 -336 -214 -448 -209
-467 7 -29 45 -48 79 -39 28 7 15 -17 379 729 97 201 101 210 86 235 -21 38
-81 43 -104 9z"/>
<path d="M667 1962 c-15 -17 -17 -62 -17 -440 l0 -422 25 -16 c18 -12 39 -15
75 -12 80 8 80 8 80 190 0 178 8 208 60 227 38 13 70 2 99 -35 19 -25 21 -39
21 -185 0 -146 2 -161 20 -179 23 -23 93 -27 134 -8 35 15 40 49 34 232 -4
128 -8 159 -27 201 -40 91 -101 137 -181 137 -54 0 -82 -12 -127 -55 l-33 -31
0 191 c0 187 -1 192 -22 207 -32 23 -120 21 -141 -2z"/>
<path d="M1332 1884 c-22 -15 -22 -15 -22 -345 0 -362 2 -373 59 -422 42 -35
89 -47 187 -47 86 0 104 8 118 57 8 26 -16 78 -39 87 -9 3 -40 6 -69 6 -29 0
-57 5 -64 12 -8 8 -12 56 -12 150 l0 138 79 0 c71 0 82 2 95 22 9 12 16 32 16
43 0 11 -7 31 -16 43 -13 20 -24 22 -95 22 l-79 0 0 109 c0 102 -2 111 -22
125 -12 9 -43 16 -68 16 -25 0 -56 -7 -68 -16z"/>
<path d="M1782 1884 c-22 -15 -22 -15 -22 -345 0 -362 2 -373 59 -422 42 -35
89 -47 187 -47 94 0 118 15 118 77 0 52 -30 73 -105 73 -47 0 -60 4 -69 19 -5
11 -10 78 -10 150 l0 131 79 0 c71 0 82 2 95 22 9 12 16 32 16 43 0 11 -7 31
-16 43 -13 20 -24 22 -95 22 l-79 0 0 109 c0 102 -2 111 -22 125 -12 9 -43 16
-68 16 -25 0 -56 -7 -68 -16z"/>
<path d="M2514 1650 c-40 -9 -100 -46 -108 -65 -9 -23 -26 -18 -26 9 0 34 -26
51 -80 51 -33 0 -54 -6 -69 -19 -21 -19 -21 -25 -21 -402 l0 -383 26 -20 c39
-31 107 -29 139 4 24 23 25 28 25 175 l0 152 26 -32 c36 -42 79 -62 134 -62
55 0 93 18 136 64 62 65 69 90 69 233 0 127 -1 131 -31 185 -48 85 -138 130
-220 110z m11 -164 c44 -19 65 -61 65 -131 0 -70 -21 -112 -65 -131 -39 -16
-71 -8 -104 27 -18 19 -21 35 -21 102 0 90 9 113 53 132 40 18 32 17 72 1z"/>
<path d="M3029 1650 c-25 -4 -60 -15 -76 -24 -116 -59 -126 -229 -18 -289 11
-6 60 -25 109 -42 104 -35 124 -56 86 -87 -32 -26 -108 -21 -169 10 -58 31
-87 29 -106 -8 -22 -43 -19 -65 17 -95 40 -34 68 -45 143 -56 115 -17 235 23
269 89 37 72 27 160 -24 209 -18 18 -66 41 -132 63 -78 27 -104 40 -107 54 -8
47 60 58 153 26 67 -23 87 -17 106 29 30 74 -18 108 -175 125 -16 2 -51 0 -76
-4z"/>
<path d="M3419 1551 c-20 -20 -29 -39 -29 -61 0 -22 9 -41 29 -61 37 -37 79
-38 120 -3 25 20 31 34 31 64 0 30 -6 44 -31 64 -41 35 -83 34 -120 -3z"/>
<path d="M3419 1211 c-20 -20 -29 -39 -29 -61 0 -43 47 -90 90 -90 45 0 90 47
90 93 0 80 -93 115 -151 58z"/>
</g>
</svg>
